<?xml version="1.0" ?><svg height="500" id="Layer_1" version="1.1" viewBox="0 0 500 500" width="500" xml:space="preserve" xmlns="http://www.w3.org/2000/svg" xmlns:cc="http://creativecommons.org/ns#" xmlns:dc="http://purl.org/dc/elements/1.1/" xmlns:inkscape="http://www.inkscape.org/namespaces/inkscape" xmlns:rdf="http://www.w3.org/1999/02/22-rdf-syntax-ns#" xmlns:sodipodi="http://sodipodi.sourceforge.net/DTD/sodipodi-0.dtd" xmlns:svg="http://www.w3.org/2000/svg"><defs id="defs7"/><rect height="500" id="rect2990-1" rx="250" ry="250" style="fill:#2a5b83;fill-opacity:1;stroke:none" width="500" x="0" y="0"/><path d="m 121.47369,90 c -1.5423,0.283275 -3.05764,0.311669 -4.57895,0.657899 -14.18492,3.231477 -24.55403,14.810441 -26.57895,29.184211 -0.0838,0.59803 -0.22136,1.03354 -0.31579,1.63158 l 0,257.05262 c 0.29377,1.61575 0.60647,3.30532 0.97369,4.92105 3.13705,13.87015 14.77793,24.42176 28.86842,26.23685 0.67147,0.0838 1.29171,0.22136 1.97369,0.31579 l 256.3684,0 c 1.66821,-0.27278 3.27385,-0.30117 4.92106,-0.6579 13.07278,-2.78032 23.67684,-13.7485 26.23684,-26.89474 0.26231,-1.43737 0.42707,-2.83627 0.6579,-4.26316 l 0,-256.3684 c -0.22033,-1.39543 -0.39559,-2.55196 -0.6579,-3.94737 C 406.5303,103.52613 394.67855,92.309237 380.15789,90.315787 379.54937,90.2424 379.12435,90.104928 378.52631,90 Z m 210.81578,25.89474 c 10.08262,-0.0109 20.07528,0 30.15789,0 7.22886,0.0109 12.78948,5.88174 12.78948,13.13157 l 0,30.1579 c 0,6.7882 -5.35387,12.6216 -12.13157,12.78948 -5.27739,0.12589 -10.46997,0 -15.73684,0 -4.85772,0 -9.87915,0.31578 -14.73686,0.31578 -5.98032,-0.0315 -10.6586,-3.51225 -12.47367,-8.8421 -0.47214,-1.41639 -0.9632,-2.76284 -0.9737,-4.26316 -0.0734,-10.01967 -0.0109,-20.13823 0,-30.1579 0,-7.24983 5.88691,-13.12107 13.10527,-13.13157 z M 250,185.07895 c 36.32262,-0.0209 65.70795,29.93519 64.92105,66.23685 -0.76589,35.22098 -30.31394,64.38164 -66.55263,63.60525 -34.83279,-0.74491 -63.80358,-29.5931 -63.28947,-65.89472 0.4931,-35.33641 29.41679,-63.96837 64.92105,-63.94738 z m -125.57894,34.76316 30.5,0 c -7.9318,27.1318 -5.65552,53.12926 7.86842,78.02631 9.08589,16.71344 22.11765,29.74107 38.68421,39.02631 32.78689,18.40262 73.37529,16.4413 104.26314,-4.60526 11.90822,-8.11016 21.68258,-18.17728 29.18422,-30.47367 7.50165,-12.2964 12.07398,-25.69968 13.76315,-40.00001 1.68919,-14.30032 0.3911,-28.18746 -3.92105,-41.97368 l 30.47369,0 0,0.97368 c 0,47.29704 0.0109,94.66613 0,141.97368 0,6.87213 -5.56475,12.44737 -12.44737,12.44737 -75.12131,0.0109 -150.45763,0.0109 -225.57894,0 -6.81967,0 -12.78947,-5.63818 -12.78947,-12.44737 -0.0109,-47.37049 0,-94.91897 0,-142.28947 z" id="rect2982" style="fill:#ffffff;fill-opacity:1;stroke:none"/></svg>