<?xml version="1.0" ?><svg height="500" id="svg2" version="1.1" width="500" xmlns="http://www.w3.org/2000/svg" xmlns:cc="http://creativecommons.org/ns#" xmlns:dc="http://purl.org/dc/elements/1.1/" xmlns:inkscape="http://www.inkscape.org/namespaces/inkscape" xmlns:rdf="http://www.w3.org/1999/02/22-rdf-syntax-ns#" xmlns:sodipodi="http://sodipodi.sourceforge.net/DTD/sodipodi-0.dtd" xmlns:svg="http://www.w3.org/2000/svg"><defs id="defs4"/><g id="layer1" transform="translate(0,-552.36218)"><rect height="500" id="rect2990-1" rx="250" ry="250" style="fill:#3e6365;fill-opacity:1;stroke:none" width="500" x="0" y="552.36218"/><g id="layer1-9" transform="translate(-549.00515,80.294372)"/><g id="layer1-6" transform="translate(-575.71429,39.999999)"/><g id="layer1-5" transform="matrix(1.0001999,0,0,1.0001999,-396.36487,107.79515)"/><path d="m 359.5062,662.77082 c -35.56459,0.72204 -78.16403,28.51811 -85.92698,75.12673 36.54447,-21.95125 56.0563,8.91005 37.35086,43.85101 -18.67959,34.90863 -35.74683,57.70132 -44.67603,57.70132 -8.91629,0 -15.78471,-23.36376 -26.00059,-64.20147 -10.57153,-42.22142 -10.48582,-118.2714 -54.40126,-109.65252 -41.41964,8.12745 -95.852198,73.12668 -95.852198,73.12668 l 13.000298,17.05039 c 0,0 26.81514,-21.13385 35.75082,-10.57524 8.93568,10.56503 43.01505,138.09335 54.40125,161.62871 9.93786,20.6387 37.36723,47.95147 67.42655,28.45066 30.03992,-19.4878 129.95058,-104.79408 147.8284,-205.50473 8.3772,-47.20206 -17.5206,-67.63863 -48.90112,-67.00154 z" id="rect2989-7" style="fill:#ffffff;fill-opacity:1;stroke:none"/></g></svg>