<?xml version="1.0" ?><svg height="500" id="svg2" version="1.1" width="500" xmlns="http://www.w3.org/2000/svg" xmlns:cc="http://creativecommons.org/ns#" xmlns:dc="http://purl.org/dc/elements/1.1/" xmlns:inkscape="http://www.inkscape.org/namespaces/inkscape" xmlns:rdf="http://www.w3.org/1999/02/22-rdf-syntax-ns#" xmlns:sodipodi="http://sodipodi.sourceforge.net/DTD/sodipodi-0.dtd" xmlns:svg="http://www.w3.org/2000/svg"><defs id="defs4"/><g id="layer1" transform="translate(0,-552.36218)"><rect height="500" id="rect2990-1" rx="250" ry="250" style="fill:#537599;fill-opacity:1;stroke:none" width="500" x="0" y="552.36218"/><g id="layer1-9" transform="translate(-549.00515,80.294372)"/><g id="layer1-6" transform="translate(-575.71429,39.999999)"/><g id="layer1-8" transform="translate(357.14286,-39.285715)"/><path d="m 116.4079,642.36218 0,320 156.84211,0 c 49.22043,0 72.72277,-16.22004 87.76315,-34.89474 15.03833,-18.67475 22.57895,-39.84663 22.57895,-63.60526 0,-39.69345 -30.45684,-67.44476 -73.07895,-77.44737 18.33954,-4.84691 32.14331,-10.15726 41.39474,-23.05263 9.24732,-12.89538 13.86842,-27.34952 13.86842,-43.28947 0,-21.88346 -7.97308,-35.09607 -23.89474,-52.13158 -15.92474,-17.03551 -41.23177,-25.57895 -75.97368,-25.57895 l -149.5,0 z m 83.13158,63.28947 37.39474,0 c 22.51691,0 33.78947,8.15858 33.78947,25.97369 0,6.56309 -2.4134,18.90381 -7.23684,24.68421 -4.82857,5.78245 -13.15558,8.6834 -24.89474,8.68421 l -39.05263,0 0,-59.34211 z m -0.44737,127.31579 45.84211,0 c 14.79592,0 24.97669,3.09193 30.52631,9.26316 5.54552,6.1743 8.31579,12.91637 8.31579,20.26316 0,7.34886 -2.84585,13.95333 -8.55263,19.81579 -5.71294,5.86555 -14.70016,8.78947 -26.92105,8.78947 l -49.21053,0 0,-58.13158 z" id="rect2989" style="fill:#ffffff;fill-opacity:1;stroke:none"/></g></svg>