<?xml version="1.0" ?><svg height="500" id="svg2" version="1.1" width="500" xmlns="http://www.w3.org/2000/svg" xmlns:cc="http://creativecommons.org/ns#" xmlns:dc="http://purl.org/dc/elements/1.1/" xmlns:inkscape="http://www.inkscape.org/namespaces/inkscape" xmlns:rdf="http://www.w3.org/1999/02/22-rdf-syntax-ns#" xmlns:sodipodi="http://sodipodi.sourceforge.net/DTD/sodipodi-0.dtd" xmlns:svg="http://www.w3.org/2000/svg"><defs id="defs4"/><g id="layer1" transform="translate(0,-552.36218)"><rect height="500" id="rect3758-1" rx="250" ry="250" style="fill:#15913b;fill-opacity:1;stroke:none" width="500" x="0" y="552.36218"/><path d="m 227.42033,642.36951 c -0.89538,0.0107 -1.78813,0.0358 -2.70148,0.0527 -4.38414,0.0811 -9.0436,0.31648 -14.37305,0.63154 -8.05749,0.47637 -23.31681,9.86426 -23.31681,19.92035 l 0,39.57749 c 0,4.41159 -6.43519,11.07854 -10.83221,11.07854 -13.15872,0 -27.97416,0.0789 -37.50625,0.0789 -7.15208,0 -16.12261,6.04555 -19.46129,12.31532 -2.29167,4.30359 -2.58914,13.74456 -2.54413,20.18348 3.89198,32.63067 10.23313,65.20128 20.43172,96.20704 1.97327,5.99907 7.23378,9.49723 12.32725,12.21006 12.20504,6.50056 75.1541,17.48911 81.41215,17.1836 9.81864,0.52939 15.52075,-14.1774 18.70067,-31.47254 1.01905,-5.54245 0.4442,-22.09704 1.18027,-23.5781 0.34253,-0.68924 1.90078,-0.66858 2.28184,0 0.79797,1.40016 0.37334,12.92532 1.33763,18.8151 0.97701,5.96737 6.03752,17.0212 18.88428,20.34136 14.28333,3.69144 27.06317,3.81556 40.65363,6.52612 16.55066,3.30092 18.51707,27.8659 18.51707,32.18301 l 0,20.65714 c 0,4.62104 -6.29856,14.55211 -15.78937,14.55211 -9.8789,0 -18.0207,0.13163 -29.00833,0.13163 -5.74262,0 -11.33055,-5.07587 -11.33055,-10.6838 l 0,-7.47343 c 0,-3.75282 6.79743,-8.63129 11.82891,-8.63129 4.97285,0 9.02092,-0.0527 11.33055,-0.0527 l 0.10486,-4.49984 c -0.56338,-2.10946 -0.5508,-2.90624 -0.5508,-5.76296 0,-2.58005 0.44557,-6.7626 2.15071,-8.47335 0,-1.19116 0.0523,-1.43329 0.0523,-3.05255 -4.47821,0 -15.7964,0.0789 -25.25768,0.0789 -3.94163,0 -8.37469,1.42329 -11.77645,3.42094 -5.29579,3.10988 -7.29612,5.49461 -10.77977,11.44694 -2.04554,3.49515 -4.06536,13.15676 -4.06536,17.2099 l 0,14.60473 c 0,4.15237 1.98062,13.02954 4.24896,17.3678 2.13421,4.08172 7.55603,9.27159 11.72398,11.21011 5.47738,2.54761 11.80778,4.53006 15.39593,4.71034 4.51913,0.22715 20.23173,1.04523 30.63445,0.97366 7.64219,-0.053 15.72661,-0.1113 22.84473,-1.18417 10.11907,-2.52696 15.25919,-5.91754 21.74312,-14.05211 2.60025,-3.32366 4.34725,-7.24174 6.11118,-11.07854 4.00269,-8.7065 7.07529,-18.74271 9.46835,-28.0253 6.72911,-26.10222 12.47479,-77.12239 11.80267,-104.07517 -0.37526,-15.04853 -0.17361,-29.13866 -1.15404,-44.18262 -1.51271,-23.20923 -3.72876,-62.05152 -7.08159,-69.39219 -2.7108,-5.93493 -8.42446,-10.64316 -14.37305,-13.289 -6.78839,-3.01936 -20.97783,-6.67682 -42.67319,-8.78914 -14.31376,-1.39363 -31.57869,-0.86841 -43.25021,-0.86841 0,-8.04236 -7.41065,-17.2698 -15.81558,-20.63082 -3.83553,-1.53377 -8.93955,-3.15657 -12.90422,-3.52618 -5.63263,-0.52512 -10.70169,-0.84342 -15.97296,-0.89471 -0.87854,-0.009 -1.75365,-0.0107 -2.64903,0 z m -47.57784,8.68389 -55.65612,56.15586 c 0,0 4.74955,-3.18409 9.94045,-3.18409 7.93859,0 30.37956,0.0789 37.42756,0.0789 2.43171,-1.02455 3.42813,-1.64845 4.6424,-3.65776 l 0,-37.97233 c 0,-4.84484 3.64571,-11.42064 3.64571,-11.42064 z m 140.11074,123.54815 c 13.52833,0 18.28103,15.39646 18.28103,23.36757 -3.99043,0 -15.82939,-4.44721 -23.08078,-4.44721 -4.63493,0 -9.38795,1.18417 -11.96002,1.18417 0,-9.46535 7.30559,-20.10453 16.75977,-20.10453 z" id="rect3760" style="fill:#ffffff;fill-opacity:1;stroke:none"/><path d="M 0,1052.3622 z" id="path3795" style="opacity:0.25;fill:#000000;fill-opacity:1;stroke:none"/></g></svg>