<?xml version="1.0" ?><svg height="500" id="svg2" version="1.1" width="500" xmlns="http://www.w3.org/2000/svg" xmlns:cc="http://creativecommons.org/ns#" xmlns:dc="http://purl.org/dc/elements/1.1/" xmlns:inkscape="http://www.inkscape.org/namespaces/inkscape" xmlns:rdf="http://www.w3.org/1999/02/22-rdf-syntax-ns#" xmlns:sodipodi="http://sodipodi.sourceforge.net/DTD/sodipodi-0.dtd" xmlns:svg="http://www.w3.org/2000/svg"><defs id="defs4"/><g id="layer1" transform="translate(0,-552.36218)"><rect height="500" id="rect2990-1" rx="250" ry="250" style="fill:#d12127;fill-opacity:1;stroke:none" width="500" x="0" y="552.36218"/><g id="layer1-9" transform="translate(-549.00515,80.294372)"/><g id="layer1-6" transform="translate(-575.71429,39.999999)"/><g id="layer1-5" transform="matrix(1.0016514,0,0,1.0016514,-45.347903,14.073528)"/><path d="m 186.25,706.09968 c -53.06915,0 -96.25,43.2113 -96.25,96.3 0,53.06262 43.18085,96.225 96.25,96.225 28.94562,0 56.07496,-12.81634 74.425,-35.2 0.53434,-0.65166 0.68233,-1.54305 0.35,-2.325 l -12.15,-27.975 c -0.34537,-0.77544 -1.12138,-1.28582 -1.975,-1.325 -0.87971,-0.0391 -1.65902,0.44411 -2.05,1.2 -11.45574,21.88842 -33.92804,35.45 -58.625,35.45 -36.41989,0 -66.025,-29.61058 -66.025,-66.05 0,-36.43944 29.60512,-66.05 66.025,-66.05 26.51502,0 50.82429,15.72158 60.475,39.2 l 30,68.45 3.45,7.675 c 13.56705,31.60431 33.53021,45.7827 64.75,45.9 37.1237,0 65.1,-24.59218 65.1,-57.2 0,-32.7642 -18.11612,-45.07691 -49.375,-55.275 -2.80198,-0.9188 -5.5185,-1.74742 -8.125,-2.575 -19.92049,-6.26222 -31.9,-10.04761 -31.9,-25.55 0,-12.57654 9.67196,-21.7 23.05,-21.7 10.24367,0 17.90136,4.26446 24.75,13.85 0.63866,0.89274 1.82794,1.22782 2.825,0.7 l 20.1,-10.275 c 0.54736,-0.26718 0.95563,-0.76353 1.125,-1.35 0.17598,-0.58647 0.13127,-1.21566 -0.175,-1.75 -10.76502,-19.13201 -26.29686,-28.425 -47.475,-28.425 -32.22339,0 -53.075,19.47929 -53.075,49.65 0,30.84838 20.1372,43.3438 57.3,55.575 21.53645,7.18101 31.05,10.98007 31.05,26.3 0,17.2227 -15.49574,29.59827 -36.7,28.875 -22.20767,-0.74941 -28.96027,-12.51811 -37.425,-31.8 -14.31642,-32.65994 -30.59362,-70.77856 -30.75,-71.15 -16.35605,-37.72966 -48.7767,-59.375 -88.95,-59.375 z" id="rect2989" style="fill:#ffffff;fill-opacity:1;stroke:none"/></g></svg>