<?xml version="1.0" ?><svg height="500" id="svg2" version="1.1" width="500" xmlns="http://www.w3.org/2000/svg" xmlns:cc="http://creativecommons.org/ns#" xmlns:dc="http://purl.org/dc/elements/1.1/" xmlns:inkscape="http://www.inkscape.org/namespaces/inkscape" xmlns:rdf="http://www.w3.org/1999/02/22-rdf-syntax-ns#" xmlns:sodipodi="http://sodipodi.sourceforge.net/DTD/sodipodi-0.dtd" xmlns:svg="http://www.w3.org/2000/svg"><defs id="defs4"/><g id="layer1" transform="translate(0,-552.36218)"><rect height="500" id="rect2990-1" rx="250" ry="250" style="fill:#0072c6;fill-opacity:1;stroke:none" width="500" x="0" y="552.36218"/><g id="layer1-9" transform="translate(-549.00515,80.294372)"/><g id="layer1-6" transform="translate(-575.71429,39.999999)"/><g id="g3083" transform="matrix(1.0042719,0,0,1.0042719,502.94667,585.02543)"><g id="g2988" style="fill:#999999" transform="translate(717.00003,271.6875)"><g id="g23" style="fill:#999999" transform="matrix(13.946041,0,0,13.946041,-502.07017,-337.31204)"/></g></g><path d="m 278.05263,642.36218 -186.315788,36.05263 0,244.89474 186.315788,39.05263 0,-320 z m 11.76316,67.84211 0,62.57894 21.86842,13.78948 c 0.5769,0.16838 1.81786,0.1804 2.39474,0 l 94.15789,-63.47369 c 0,-7.51175 -6.99317,-12.89473 -10.94737,-12.89473 l -107.47368,0 z M 187,746.3885 c 12.29524,0 22.23192,5.00719 29.81579,15.07894 7.59589,10.07177 11.39473,23.36433 11.39473,39.84211 0.012,16.93449 -3.91714,30.58716 -11.78947,40.94737 -7.87232,10.36021 -18.14797,15.55263 -30.81579,15.55263 -12.34331,0 -22.38173,-5.01694 -30.15789,-15.05263 -7.76415,-10.04773 -11.68421,-23.13392 -11.68421,-39.26316 0,-17.03065 3.97205,-30.79934 11.86842,-41.31579 C 163.52793,751.66151 173.98363,746.3885 187,746.3885 Z m 221.26316,2 c 0,0 -95.64043,63.56724 -92.26316,61.5 0,0 -3.39811,2.06724 -6.21053,0 l -19.97368,-13.71053 0,85.05263 101.39473,0 c 9.01413,0 17.05264,-5.26586 17.05264,-17.78947 l 0,-115.05263 z m -221.81579,18.92105 c -6.80264,0 -12.20826,3.19696 -16.21053,9.57895 -4.00227,6.38199 -6.02632,14.82565 -6.02632,25.3421 0,10.6727 2.02405,19.11408 6.02632,25.31579 4.00227,6.21373 9.24669,9.28947 15.73684,9.28947 6.69448,0 12.00292,-3.01919 15.92105,-9.05263 3.91814,-6.03344 5.89474,-14.42283 5.89474,-25.13158 0,-11.16546 -1.90056,-19.83891 -5.71052,-26.05263 -3.80997,-6.20171 -9.02124,-9.28947 -15.63158,-9.28947 z" id="rect2989-1" style="fill:#ffffff;fill-opacity:1;stroke:none"/></g></svg>